name rise37.2698peak67.6939fall79.5734.mot
datacolumns 19
datarows 27
range 2.48665700000000 2.52999600000000
endheader
time	ground_force1_vx	ground_force1_vy	ground_force1_vz	ground_force1_px	ground_force1_py	ground_force1_pz	ground_force2_vx	ground_force2_vy	ground_force2_vz	ground_force2_px	ground_force2_py	ground_force2_pz	ground_torque1_x	ground_torque1_y	ground_torque1_z	ground_torque2_x	ground_torque2_y	ground_torque2_z	
2.48665700000000	57.22724600000000	759.18841299999997	59.54690900000000	0.33506400000000	0.00000000000000	0.10848600000000	0.00000000000000	0.00000000000000	0.00000000000000	0.00000000000000	0.00000000000000	0.00000000000000	0.00000000000000	26.40416300000000	0.00000000000000	0.00000000000000	0.00000000000000	0.00000000000000	
2.48832500000000	56.60942500000000	761.78993900000000	59.78213500000000	0.33430500000000	0.00000000000000	0.10849000000000	0.00000000000000	0.00000000000000	0.00000000000000	0.00000000000000	0.00000000000000	0.00000000000000	0.00000000000000	26.55774100000000	0.00000000000000	0.00000000000000	0.00000000000000	0.00000000000000	
2.48998900000000	55.99260700000000	764.26893900000005	60.00767900000000	0.33356400000000	0.00000000000000	0.10849400000000	0.00000000000000	0.00000000000000	0.00000000000000	0.00000000000000	0.00000000000000	0.00000000000000	0.00000000000000	26.70671900000000	0.00000000000000	0.00000000000000	0.00000000000000	0.00000000000000	
2.49165900000000	55.37723300000000	766.62447899999995	60.22301100000000	0.33284100000000	0.00000000000000	0.10849600000000	0.00000000000000	0.00000000000000	0.00000000000000	0.00000000000000	0.00000000000000	0.00000000000000	0.00000000000000	26.85069800000000	0.00000000000000	0.00000000000000	0.00000000000000	0.00000000000000	
2.49332500000000	54.76369700000000	768.85573799999997	60.42758300000000	0.33213300000000	0.00000000000000	0.10849800000000	0.00000000000000	0.00000000000000	0.00000000000000	0.00000000000000	0.00000000000000	0.00000000000000	0.00000000000000	26.98926300000000	0.00000000000000	0.00000000000000	0.00000000000000	0.00000000000000	
2.49499000000000	54.15234500000000	770.96200499999998	60.62083400000000	0.33144100000000	0.00000000000000	0.10849900000000	0.00000000000000	0.00000000000000	0.00000000000000	0.00000000000000	0.00000000000000	0.00000000000000	0.00000000000000	27.12198900000000	0.00000000000000	0.00000000000000	0.00000000000000	0.00000000000000	
2.49665500000000	53.54348100000000	772.94269299999996	60.80219700000000	0.33076100000000	0.00000000000000	0.10850000000000	0.00000000000000	0.00000000000000	0.00000000000000	0.00000000000000	0.00000000000000	0.00000000000000	0.00000000000000	27.24844200000000	0.00000000000000	0.00000000000000	0.00000000000000	0.00000000000000	
2.49833600000000	52.93736500000000	774.79734099999996	60.97110200000000	0.33009300000000	0.00000000000000	0.10849900000000	0.00000000000000	0.00000000000000	0.00000000000000	0.00000000000000	0.00000000000000	0.00000000000000	0.00000000000000	27.36818600000000	0.00000000000000	0.00000000000000	0.00000000000000	0.00000000000000	
2.49998800000000	52.33421800000000	776.52562300000000	61.12698600000000	0.32943500000000	0.00000000000000	0.10849800000000	0.00000000000000	0.00000000000000	0.00000000000000	0.00000000000000	0.00000000000000	0.00000000000000	0.00000000000000	27.48078500000000	0.00000000000000	0.00000000000000	0.00000000000000	0.00000000000000	
2.50165600000000	51.73422400000000	778.12734899999998	61.26929300000000	0.32878500000000	0.00000000000000	0.10849600000000	0.00000000000000	0.00000000000000	0.00000000000000	0.00000000000000	0.00000000000000	0.00000000000000	0.00000000000000	27.58580700000000	0.00000000000000	0.00000000000000	0.00000000000000	0.00000000000000	
2.50332900000000	51.13753500000000	779.60247600000002	61.39748500000000	0.32814200000000	0.00000000000000	0.10849300000000	0.00000000000000	0.00000000000000	0.00000000000000	0.00000000000000	0.00000000000000	0.00000000000000	0.00000000000000	27.68282700000000	0.00000000000000	0.00000000000000	0.00000000000000	0.00000000000000	
2.50499000000000	50.54427200000000	780.95110699999998	61.51104400000000	0.32750400000000	0.00000000000000	0.10849000000000	0.00000000000000	0.00000000000000	0.00000000000000	0.00000000000000	0.00000000000000	0.00000000000000	0.00000000000000	27.77143200000000	0.00000000000000	0.00000000000000	0.00000000000000	0.00000000000000	
2.50666000000000	49.95452600000000	782.17349700000000	61.60947800000000	0.32687000000000	0.00000000000000	0.10848600000000	0.00000000000000	0.00000000000000	0.00000000000000	0.00000000000000	0.00000000000000	0.00000000000000	0.00000000000000	27.85122200000000	0.00000000000000	0.00000000000000	0.00000000000000	0.00000000000000	
2.50832800000000	49.36836600000000	783.27005499999996	61.69232600000000	0.32623600000000	0.00000000000000	0.10848100000000	0.00000000000000	0.00000000000000	0.00000000000000	0.00000000000000	0.00000000000000	0.00000000000000	0.00000000000000	27.92181700000000	0.00000000000000	0.00000000000000	0.00000000000000	0.00000000000000	
2.50999400000000	48.78583500000000	784.24134800000002	61.75916400000000	0.32560300000000	0.00000000000000	0.10847600000000	0.00000000000000	0.00000000000000	0.00000000000000	0.00000000000000	0.00000000000000	0.00000000000000	0.00000000000000	27.98285600000000	0.00000000000000	0.00000000000000	0.00000000000000	0.00000000000000	
2.51166300000000	48.20695900000000	785.08809900000006	61.80960500000000	0.32496800000000	0.00000000000000	0.10847000000000	0.00000000000000	0.00000000000000	0.00000000000000	0.00000000000000	0.00000000000000	0.00000000000000	0.00000000000000	28.03400500000000	0.00000000000000	0.00000000000000	0.00000000000000	0.00000000000000	
2.51333000000000	47.63174600000000	785.81119300000000	61.84330900000000	0.32432900000000	0.00000000000000	0.10846400000000	0.00000000000000	0.00000000000000	0.00000000000000	0.00000000000000	0.00000000000000	0.00000000000000	0.00000000000000	28.07495500000000	0.00000000000000	0.00000000000000	0.00000000000000	0.00000000000000	
2.51499600000000	47.06019100000000	786.41167499999995	61.85997900000000	0.32368400000000	0.00000000000000	0.10845700000000	0.00000000000000	0.00000000000000	0.00000000000000	0.00000000000000	0.00000000000000	0.00000000000000	0.00000000000000	28.10542800000000	0.00000000000000	0.00000000000000	0.00000000000000	0.00000000000000	
2.51666000000000	46.49227500000000	786.89074800000003	61.85937300000000	0.32303300000000	0.00000000000000	0.10845000000000	0.00000000000000	0.00000000000000	0.00000000000000	0.00000000000000	0.00000000000000	0.00000000000000	0.00000000000000	28.12518000000000	0.00000000000000	0.00000000000000	0.00000000000000	0.00000000000000	
2.51832100000000	45.92797200000000	787.24977699999999	61.84130000000000	0.32237300000000	0.00000000000000	0.10844300000000	0.00000000000000	0.00000000000000	0.00000000000000	0.00000000000000	0.00000000000000	0.00000000000000	0.00000000000000	28.13399700000000	0.00000000000000	0.00000000000000	0.00000000000000	0.00000000000000	
2.51999600000000	45.36724700000000	787.49028299999998	61.80562300000000	0.32170300000000	0.00000000000000	0.10843500000000	0.00000000000000	0.00000000000000	0.00000000000000	0.00000000000000	0.00000000000000	0.00000000000000	0.00000000000000	28.13170700000000	0.00000000000000	0.00000000000000	0.00000000000000	0.00000000000000	
2.52166000000000	44.81006100000000	787.61394499999994	61.75226400000000	0.32102100000000	0.00000000000000	0.10842700000000	0.00000000000000	0.00000000000000	0.00000000000000	0.00000000000000	0.00000000000000	0.00000000000000	0.00000000000000	28.11817300000000	0.00000000000000	0.00000000000000	0.00000000000000	0.00000000000000	
2.52332900000000	44.25637300000000	787.62259400000005	61.68120300000000	0.32032600000000	0.00000000000000	0.10841900000000	0.00000000000000	0.00000000000000	0.00000000000000	0.00000000000000	0.00000000000000	0.00000000000000	0.00000000000000	28.09329800000000	0.00000000000000	0.00000000000000	0.00000000000000	0.00000000000000	
2.52499200000000	43.70613900000000	787.51821299999995	61.59247900000000	0.31961700000000	0.00000000000000	0.10841100000000	0.00000000000000	0.00000000000000	0.00000000000000	0.00000000000000	0.00000000000000	0.00000000000000	0.00000000000000	28.05702600000000	0.00000000000000	0.00000000000000	0.00000000000000	0.00000000000000	
2.52665700000000	43.15931800000000	787.30293099999994	61.48619300000000	0.31889200000000	0.00000000000000	0.10840300000000	0.00000000000000	0.00000000000000	0.00000000000000	0.00000000000000	0.00000000000000	0.00000000000000	0.00000000000000	28.00934400000000	0.00000000000000	0.00000000000000	0.00000000000000	0.00000000000000	
2.52833000000000	42.61587000000000	786.97902299999998	61.36250200000000	0.31815000000000	0.00000000000000	0.10839400000000	0.00000000000000	0.00000000000000	0.00000000000000	0.00000000000000	0.00000000000000	0.00000000000000	0.00000000000000	27.95027800000000	0.00000000000000	0.00000000000000	0.00000000000000	0.00000000000000	
2.52999600000000	42.07575900000000	786.54890100000000	61.22162600000000	0.31738900000000	0.00000000000000	0.10838600000000	0.00000000000000	0.00000000000000	0.00000000000000	0.00000000000000	0.00000000000000	0.00000000000000	0.00000000000000	27.87989900000000	0.00000000000000	0.00000000000000	0.00000000000000	0.00000000000000	
